<?xml version="1.0" encoding="UTF-8"?>
<!DOCTYPE svg PUBLIC "-//W3C//DTD SVG 1.1//EN" "http://www.w3.org/Graphics/SVG/1.1/DTD/svg11.dtd">
<!-- Creator: CorelDRAW -->
<svg xmlns="http://www.w3.org/2000/svg" xml:space="preserve" width="52.599mm" height="52.6038mm" style="shape-rendering:geometricPrecision; text-rendering:geometricPrecision; image-rendering:optimizeQuality; fill-rule:evenodd; clip-rule:evenodd"
viewBox="0 0 52.2833 52.2881"
 xmlns:xlink="http://www.w3.org/1999/xlink">
 <defs>
  <style type="text/css">
   <![CDATA[
    .fil0 {fill:#990000}
   ]]>
  </style>
 </defs>
 <g id="Слой_x0020_1">
  <metadata id="CorelCorpID_0Corel-Layer"/>
  <path class="fil0" d="M35.5351 26.1445l15.9696 15.9704c1.03803,1.03803 1.03803,2.71988 0,3.759l-5.63627 5.63577c-1.03704,1.03754 -2.71938,1.03754 -3.75632,0l-15.9699 -15.971 -15.9707 15.9712c-1.03704,1.03754 -2.71888,1.03754 -3.75711,0l-5.63627 -5.63567c-1.03754,-1.03913 -1.03754,-2.72097 0,-3.759l15.9696 -15.9707 -15.9696 -15.9718c-1.03754,-1.03704 -1.03754,-2.71938 0,-3.75741l5.63627 -5.63676c1.03803,-1.03803 2.71988,-1.03803 3.75711,0l15.9707 15.9704 15.9693 -15.9704c1.03704,-1.03803 2.71938,-1.03803 3.75632,0l5.63627 5.63676c1.03803,1.03803 1.03803,2.72047 0,3.75741l-15.969 15.9718z"/>
 </g>
</svg>
